<svg width="165" height="165" viewBox="0 0 165 165" fill="none" xmlns="http://www.w3.org/2000/svg">
<g filter="url(#filter0_d_314_4920)">
<g clip-path="url(#clip0_314_4920)">
<rect x="16.001" y="11.001" width="133" height="133" rx="11.4819" fill="white"/>
<g filter="url(#filter1_d_314_4920)">
<line y1="-0.478413" x2="33.9676" y2="-0.478413" transform="matrix(0.462647 -0.886543 0.885117 0.465369 31.7887 89.9392)" stroke="#9399F0" stroke-width="0.956827"/>
<line y1="-0.478413" x2="33.9676" y2="-0.478413" transform="matrix(-0.43461 -0.900619 0.89934 -0.437249 62.4076 89.9392)" stroke="#9399F0" stroke-width="0.956827"/>
<circle cx="47.0983" cy="58.364" r="1.07644" stroke="#9399F0" stroke-width="0.71762"/>
<path d="M64.1869 88.9825H29.0883C26.7006 88.9822 28.8495 91.1507 28.8495 91.1507C31.4759 95.9681 36.1457 97.58 39.4434 98.3116C42.7412 99.0432 49.4044 99.2753 54.7528 98.3116C60.2444 97.3222 63.6515 93.1383 65.6194 91.1507C66.5745 90.1861 66.6415 88.9825 64.1869 88.9825Z" fill="url(#paint0_linear_314_4920)"/>
</g>
<g filter="url(#filter2_d_314_4920)">
<line y1="-0.478413" x2="33.9676" y2="-0.478413" transform="matrix(0.462647 -0.886543 0.885117 0.465369 102.594 89.9391)" stroke="#9399F0" stroke-width="0.956827"/>
<line y1="-0.478413" x2="33.9676" y2="-0.478413" transform="matrix(-0.43461 -0.900619 0.89934 -0.437249 133.213 89.9391)" stroke="#9399F0" stroke-width="0.956827"/>
<circle cx="117.903" cy="58.3639" r="1.07644" stroke="#9399F0" stroke-width="0.71762"/>
<path d="M134.992 88.9824H99.8936C97.5059 88.9822 99.6548 91.1506 99.6548 91.1506C102.281 95.968 106.951 97.58 110.249 98.3116C113.546 99.0431 120.21 99.2752 125.558 98.3116C131.05 97.3221 134.457 93.1383 136.425 91.1506C137.38 90.186 137.447 88.9824 134.992 88.9824Z" fill="url(#paint1_linear_314_4920)"/>
<path d="M131.778 88.9824H104.508C104.938 88.9824 112.238 89.9393 118.036 89.9393C122.674 89.9393 129.13 89.3014 131.778 88.9824Z" fill="url(#paint2_linear_314_4920)"/>
<path d="M60.4936 88.9825H32.267C32.7115 88.9825 40.2682 89.9393 46.2691 89.9393C51.0699 89.9393 57.7524 89.3014 60.4936 88.9825Z" fill="url(#paint3_linear_314_4920)"/>
</g>
<g filter="url(#filter3_d_314_4920)">
<path d="M111.923 44.7296L88.959 44.4904V77.5012V104.293C89.0387 107.96 90.9908 114.79 97.3313 116.253C100.441 116.971 102.594 116.971 105.704 117.21C108.813 117.449 108.574 123.429 106.182 123.429H58.8187C56.6658 123.429 55.2306 118.406 58.8187 117.21L67.6694 116.253C70.221 115.615 75.4198 112.33 75.8025 104.293C76.1853 96.2551 75.962 83.0827 75.8025 77.5012V44.4904H52.5993C49.968 44.4904 47.0975 45.6864 47.0975 45.6864V31.5731H117.664C117.983 36.5168 117.664 45.9256 117.664 45.9256C116.899 45.5429 113.597 44.7296 111.923 44.7296Z" fill="url(#paint4_linear_314_4920)"/>
</g>
<path d="M75.4898 105.542L75.6851 44.4898H77.398C77.5611 62.4557 77.7895 99.8185 77.398 105.542C77.0065 111.266 71.6885 115.559 69.0785 116.99H95.5051C90.4155 115.082 87.675 107.927 87.675 105.542V44.4898H89.1431C89.2247 62.2173 89.1431 105.542 89.1431 105.542C89.6325 111.743 95.3015 115.818 98.4825 116.533L106.027 117.209C111.206 119.362 106.661 123.668 106.661 123.409C106.661 123.15 107.857 118.884 105.293 118.659H93.7923H70.0572H58.5568C56.1879 119.601 57.3839 122.472 58.2453 123.429C54.8922 121.527 56.1059 117.508 58.5568 117.228C62.5564 116.771 63.9935 116.533 63.9935 116.533C72.2151 115.77 75.0004 109.119 75.4898 105.542Z" fill="#FFF7FC"/>
<path d="M79.9219 34.9047C60.4151 35.0951 50.146 33.7149 47.098 31.5733H117.904C115.325 34.1909 104.305 34.6668 79.9219 34.9047Z" fill="#FFF7FC"/>
</g>
</g>
<defs>
<filter id="filter0_d_314_4920" x="0.944498" y="0.963324" width="163.113" height="163.113" filterUnits="userSpaceOnUse" color-interpolation-filters="sRGB">
<feFlood flood-opacity="0" result="BackgroundImageFix"/>
<feColorMatrix in="SourceAlpha" type="matrix" values="0 0 0 0 0 0 0 0 0 0 0 0 0 0 0 0 0 0 127 0" result="hardAlpha"/>
<feOffset dy="5.01883"/>
<feGaussianBlur stdDeviation="7.52824"/>
<feComposite in2="hardAlpha" operator="out"/>
<feColorMatrix type="matrix" values="0 0 0 0 0.722624 0 0 0 0 0.722624 0 0 0 0 0.722624 0 0 0 0.18 0"/>
<feBlend mode="normal" in2="BackgroundImageFix" result="effect1_dropShadow_314_4920"/>
<feBlend mode="normal" in="SourceGraphic" in2="effect1_dropShadow_314_4920" result="shape"/>
</filter>
<filter id="filter1_d_314_4920" x="22.2205" y="51.6662" width="49.7554" height="53.5034" filterUnits="userSpaceOnUse" color-interpolation-filters="sRGB">
<feFlood flood-opacity="0" result="BackgroundImageFix"/>
<feColorMatrix in="SourceAlpha" type="matrix" values="0 0 0 0 0 0 0 0 0 0 0 0 0 0 0 0 0 0 127 0" result="hardAlpha"/>
<feOffset dy="0.478413"/>
<feGaussianBlur stdDeviation="2.87048"/>
<feComposite in2="hardAlpha" operator="out"/>
<feColorMatrix type="matrix" values="0 0 0 0 0.204378 0 0 0 0 0.203673 0 0 0 0 0.203673 0 0 0 0.28 0"/>
<feBlend mode="normal" in2="BackgroundImageFix" result="effect1_dropShadow_314_4920"/>
<feBlend mode="normal" in="SourceGraphic" in2="effect1_dropShadow_314_4920" result="shape"/>
</filter>
<filter id="filter2_d_314_4920" x="26.526" y="51.6661" width="116.255" height="53.5035" filterUnits="userSpaceOnUse" color-interpolation-filters="sRGB">
<feFlood flood-opacity="0" result="BackgroundImageFix"/>
<feColorMatrix in="SourceAlpha" type="matrix" values="0 0 0 0 0 0 0 0 0 0 0 0 0 0 0 0 0 0 127 0" result="hardAlpha"/>
<feOffset dy="0.478413"/>
<feGaussianBlur stdDeviation="2.87048"/>
<feComposite in2="hardAlpha" operator="out"/>
<feColorMatrix type="matrix" values="0 0 0 0 0.204378 0 0 0 0 0.203673 0 0 0 0 0.203673 0 0 0 0.28 0"/>
<feBlend mode="normal" in2="BackgroundImageFix" result="effect1_dropShadow_314_4920"/>
<feBlend mode="normal" in="SourceGraphic" in2="effect1_dropShadow_314_4920" result="shape"/>
</filter>
<filter id="filter3_d_314_4920" x="41.3566" y="26.3106" width="82.1902" height="103.338" filterUnits="userSpaceOnUse" color-interpolation-filters="sRGB">
<feFlood flood-opacity="0" result="BackgroundImageFix"/>
<feColorMatrix in="SourceAlpha" type="matrix" values="0 0 0 0 0 0 0 0 0 0 0 0 0 0 0 0 0 0 127 0" result="hardAlpha"/>
<feOffset dy="0.478413"/>
<feGaussianBlur stdDeviation="2.87048"/>
<feComposite in2="hardAlpha" operator="out"/>
<feColorMatrix type="matrix" values="0 0 0 0 0.204378 0 0 0 0 0.203673 0 0 0 0 0.203673 0 0 0 0.28 0"/>
<feBlend mode="normal" in2="BackgroundImageFix" result="effect1_dropShadow_314_4920"/>
<feBlend mode="normal" in="SourceGraphic" in2="effect1_dropShadow_314_4920" result="shape"/>
</filter>
<linearGradient id="paint0_linear_314_4920" x1="66.2348" y1="88.9825" x2="60.5923" y2="104.755" gradientUnits="userSpaceOnUse">
<stop offset="0.414277" stop-color="#828CFF"/>
<stop offset="1" stop-color="#E8A9FF"/>
</linearGradient>
<linearGradient id="paint1_linear_314_4920" x1="137.04" y1="88.9824" x2="131.398" y2="104.755" gradientUnits="userSpaceOnUse">
<stop offset="0.414277" stop-color="#828CFF"/>
<stop offset="1" stop-color="#E8A9FF"/>
</linearGradient>
<linearGradient id="paint2_linear_314_4920" x1="118.143" y1="89.9393" x2="118.143" y2="88.9824" gradientUnits="userSpaceOnUse">
<stop stop-color="#828CFF"/>
<stop offset="1" stop-color="#C9EBFF"/>
</linearGradient>
<linearGradient id="paint3_linear_314_4920" x1="46.3803" y1="89.9393" x2="46.3803" y2="88.9825" gradientUnits="userSpaceOnUse">
<stop stop-color="#8087F4"/>
<stop offset="1" stop-color="#E4E7FF"/>
</linearGradient>
<linearGradient id="paint4_linear_314_4920" x1="51.8817" y1="19.1343" x2="107.378" y2="127.017" gradientUnits="userSpaceOnUse">
<stop stop-color="#4FCAFF"/>
<stop offset="0.555" stop-color="#DB70FF"/>
<stop offset="1" stop-color="#6F8CFF"/>
</linearGradient>
<clipPath id="clip0_314_4920">
<rect x="16.001" y="11.001" width="133" height="133" rx="19.1365" fill="white"/>
</clipPath>
</defs>
</svg>
